<svg xmlns="http://www.w3.org/2000/svg" width="512" height="512" viewBox="0 0 512 512">
  <rect width="512" height="512" fill="#0E1116"/>
  <g fill="none" stroke-width="40" transform="rotate(-90 256 256)">
    <circle cx="256" cy="256" r="132" stroke="#10B981" stroke-dasharray="497.6 331.8"/>
    <circle cx="256" cy="256" r="132" stroke="#F43F5E" stroke-dasharray="248.8 580.6" stroke-dashoffset="-497.6"/>
    <circle cx="256" cy="256" r="132" stroke="#F5B301" stroke-dasharray="82.9 746.4" stroke-dashoffset="-746.4"/>
  </g>
  <circle cx="256" cy="256" r="94" fill="#0E1116"/>
<g transform="translate(194.61 312.21) scale(0.21210 -0.21210)" fill="#F5F5F7"><path d="M214.6658952245393 -13.166772633821273Q157.83266785836057 -13.166772633821273 117.66603510149383 8.833227366178726Q77.4994023446271 30.833227366178726 56.4994023446271 69.5832464399561Q35.49940234462711 108.33326551373347 35.49940234462711 155Q35.49940234462711 233.66673448626653 83.58278866153773 275.58370421837446Q131.66617497844837 317.5006739504824 230 317.5006739504824H380.499122590718V340Q380.499122590718 388.33234995689673 357.6662131260031 406.4153802247888Q334.8333036612882 424.49841049268093 294.50059765537287 424.49841049268093Q256.8347024308336 424.49841049268093 238.83508391414247 412.58208927676503Q220.83546539745134 400.6657680608492 219.00216173616315 375.49940234462713H65.4994023446271Q68.4994023446271 422.9995167872913 95.83276958776037 461.0830429811565Q123.16613683089363 499.16656917502166 174.5830684154468 521.1666709044215Q226 543.1667726338213 299.50059765537287 543.1667726338213Q370.1676118955485 543.1667726338213 423.0845434801017 521.916753560044Q476.00147506465487 500.66673448626653 505.58500125852004 454.49986012304544Q535.1685274523852 408.3329857598244 535.1685274523852 329.99923703338226V135Q535.1685274523852 93 537.2519137692959 61.5Q539.3353000862065 30 543.3353000862065 0H396.499122590718Q394.8323881044515 17.33326551373347 393.24910351694064 30.416054175271213Q391.6658189294298 43.498842836808954 391.6658189294298 62.165297569166405Q368.33242625200626 29.6658952245393 325.9159142983167 8.249561295359015Q283.49940234462713 -13.166772633821273 214.6658952245393 -13.166772633821273ZM264.50059765537287 95.5011825897199Q297.8333036612882 95.5011825897199 324.16635300295763 107.66763732207735Q350.49940234462713 119.83409205443482 365.49926246767257 144.16714139610428Q380.499122590718 168.50019073777372 380.499122590718 200V222.49932604951763H259.50059765537287Q226.00127160585527 222.49932604951763 209.25167216294153 204.41611775711627Q192.50207272002777 186.3329094647149 192.50207272002777 162.50031790146383Q192.50207272002777 132.83393946421586 209.16848930483047 114.16756102696789Q225.83490588963318 95.5011825897199 264.50059765537287 95.5011825897199Z"/></g>
</svg>
