<svg xmlns="http://www.w3.org/2000/svg" width="340" height="210" viewBox="0 0 340 210"><defs><linearGradient id="g" x1="0" y1="0" x2="0" y2="1"><stop offset="0%" stop-color="#34d399" stop-opacity="0.42"></stop><stop offset="100%" stop-color="#34d399" stop-opacity="0"></stop></linearGradient><filter id="glow" x="-30%" y="-30%" width="160%" height="160%"><feGaussianBlur stdDeviation="4" result="b"></feGaussianBlur><feMerge><feMergeNode in="b"></feMergeNode><feMergeNode in="SourceGraphic"></feMergeNode></feMerge></filter></defs><line x1="8" x2="242" y1="164.62" y2="164.62" stroke="#34d399" stroke-opacity="0.12" stroke-dasharray="2 6"></line><line x1="8" x2="242" y1="101.86" y2="101.86" stroke="#34d399" stroke-opacity="0.12" stroke-dasharray="2 6"></line><line x1="8" x2="242" y1="39.10" y2="39.10" stroke="#34d399" stroke-opacity="0.12" stroke-dasharray="2 6"></line><path d="M8,89.31C21,83.034,34,76.759,47,76.759C60,76.759,73,101.862,86,101.862C99,101.862,112,83.034,125,83.034C138,83.034,151,108.138,164,108.138C177,108.138,190,95.586,203,95.586C216,95.586,229,105,242,114.414L242,196C229,196,216,196,203,196C190,196,177,196,164,196C151,196,138,196,125,196C112,196,99,196,86,196C73,196,60,196,47,196C34,196,21,196,8,196Z" fill="url(#g)"></path><line x1="8" y1="82.81" x2="242" y2="108.36" stroke="#34d399" stroke-opacity="0.35" stroke-width="2" stroke-dasharray="6 6"></line><path d="M8,89.31C21,83.034,34,76.759,47,76.759C60,76.759,73,101.862,86,101.862C99,101.862,112,83.034,125,83.034C138,83.034,151,108.138,164,108.138C177,108.138,190,95.586,203,95.586C216,95.586,229,105,242,114.414" fill="none" stroke="#34d399" stroke-width="3.5" stroke-linecap="round" filter="url(#glow)"></path><circle cx="242" cy="114.414" r="9" fill="#34d399" fill-opacity="0.18"></circle><circle cx="242" cy="114.414" r="5" fill="#34d399"></circle><text x="253" y="119.414" fill="#34d399" font-size="22" font-weight="800" font-family="-apple-system, system-ui, sans-serif">64.8 кг</text></svg>
